<?xml version="1.0" standalone="no"?>
<!DOCTYPE svg PUBLIC "-//W3C//DTD SVG 20010904//EN"
 "http://www.w3.org/TR/2001/REC-SVG-20010904/DTD/svg10.dtd">
<svg version="1.0" xmlns="http://www.w3.org/2000/svg"
 width="942.000000pt" height="948.000000pt" viewBox="0 0 942.000000 948.000000"
 preserveAspectRatio="xMidYMid meet">

<g transform="translate(0.000000,948.000000) scale(0.100000,-0.100000)"
fill="#000000" stroke="none">
<path d="M534 9251 c-37 -23 -59 -75 -77 -180 -14 -84 -37 -111 -63 -76 -18
24 -11 72 14 95 15 14 17 28 12 83 -3 36 -9 69 -13 73 -11 11 -56 -17 -78 -48
-42 -59 -45 -229 -5 -307 20 -39 63 -61 117 -61 73 0 111 58 135 205 7 43 29
85 44 85 20 0 40 -33 40 -66 0 -24 -8 -43 -25 -60 -27 -26 -30 -53 -19 -138 6
-41 9 -46 28 -40 38 11 84 64 95 110 14 55 14 178 0 227 -6 22 -25 55 -43 74
-27 30 -41 36 -82 40 -37 3 -57 -1 -80 -16z"/>
<path d="M2538 9118 c-8 -13 -286 -457 -618 -988 -331 -531 -633 -1014 -671
-1074 -73 -116 -82 -142 -77 -221 l3 -50 653 4 652 4 0 -166 0 -167 -49 0
c-27 0 -53 -6 -59 -13 -6 -7 -12 -35 -14 -62 l-3 -50 -95 -27 c-52 -15 -96
-28 -96 -28 -1 0 -13 18 -28 40 -14 22 -32 40 -39 40 -16 0 -227 -137 -227
-147 0 -4 11 -28 25 -52 l25 -43 -38 -37 c-21 -20 -51 -54 -66 -74 -16 -20
-33 -37 -38 -37 -5 0 -26 11 -46 25 -29 20 -39 22 -49 12 -12 -12 -133 -239
-133 -249 0 -4 21 -18 46 -33 38 -22 45 -31 40 -48 -4 -12 -14 -58 -23 -102
-9 -44 -21 -83 -27 -87 -6 -4 -30 -8 -53 -8 l-43 0 0 -138 c0 -86 4 -142 11
-149 6 -6 27 -9 47 -7 21 3 43 1 50 -4 7 -4 21 -40 33 -78 35 -120 37 -111
-15 -136 -25 -12 -46 -28 -46 -36 0 -17 97 -210 118 -234 13 -16 17 -15 53 8
21 13 45 24 54 24 8 0 48 -32 88 -72 l74 -72 -24 -53 c-18 -38 -22 -57 -15
-66 21 -25 218 -121 235 -114 9 3 26 25 37 48 18 34 25 40 43 35 117 -30 172
-48 179 -59 4 -6 8 -31 8 -53 0 -29 5 -44 16 -48 27 -10 81 -7 92 7 13 15 10
65 -6 94 -7 12 -12 39 -12 60 0 46 -14 63 -50 63 -39 0 -211 39 -244 56 -42
21 -61 17 -76 -13 -26 -52 -29 -54 -61 -37 -34 17 -35 22 -12 68 l16 35 -131
131 c-72 71 -138 130 -145 130 -7 0 -22 -7 -33 -15 -26 -19 -44 -19 -60 3 -21
28 -16 49 16 62 49 20 50 28 18 125 -16 50 -35 124 -42 165 l-12 75 -55 5 -54
5 0 40 c0 39 1 40 37 43 20 2 42 9 48 17 6 7 22 65 35 129 14 63 32 134 40
158 21 62 19 74 -20 92 -39 19 -40 23 -23 61 13 30 26 31 68 8 l31 -18 21 30
c11 17 65 73 119 126 55 52 99 102 99 110 0 7 -9 29 -20 47 -23 38 -21 46 20
67 28 14 29 14 50 -21 20 -32 25 -34 54 -28 17 3 47 14 66 24 31 15 85 30 210
58 33 8 35 10 38 56 3 40 7 48 28 56 14 6 39 10 55 10 l29 0 0 260 c0 201 -3
260 -12 260 -166 3 -1026 -2 -1139 -6 -104 -4 -159 -2 -163 5 -4 6 230 390
520 853 290 464 552 884 582 933 131 213 259 409 269 412 12 4 12 4 471 -702
179 -275 413 -635 520 -800 209 -321 303 -466 398 -612 l59 -92 199 -3 c110
-2 227 -1 260 2 l60 5 142 234 c79 128 147 238 153 244 6 6 65 -42 178 -149
92 -87 353 -333 580 -547 l411 -388 1388 1 c1028 0 1391 3 1401 12 8 6 23 23
33 38 l20 28 -173 163 c-94 90 -262 249 -372 354 -110 106 -310 296 -444 424
l-245 232 -1320 -3 c-727 -1 -1355 -4 -1396 -6 l-76 -3 -124 -207 c-68 -114
-143 -237 -167 -274 l-43 -68 -208 0 -209 0 -94 145 c-52 80 -122 189 -157
241 -66 103 -134 207 -532 819 -139 215 -299 460 -355 545 -56 85 -141 217
-189 293 l-88 137 -78 0 c-70 0 -79 -2 -92 -22z m5176 -1766 c44 -43 230 -219
411 -392 537 -511 605 -577 605 -589 0 -8 -353 -11 -1318 -11 l-1319 0 -109
103 c-60 57 -192 181 -294 277 -102 96 -216 204 -255 240 -38 36 -117 111
-175 165 -58 54 -145 137 -193 184 -87 85 -88 86 -60 92 15 3 612 7 1327 8
l1298 1 82 -78z"/>
<path d="M414 8725 c-84 -42 -116 -105 -117 -230 -1 -157 85 -250 227 -248 74
1 124 21 169 68 42 43 57 92 57 186 0 104 -14 146 -68 199 l-45 45 -8 -28
c-15 -56 -13 -133 4 -158 27 -37 22 -94 -9 -118 -51 -40 -53 -35 -56 142 l-3
162 -50 3 c-38 2 -63 -4 -101 -23z m69 -225 c0 -86 -12 -97 -59 -57 -20 17
-27 33 -27 57 0 24 7 40 27 57 47 40 59 29 59 -57z"/>
<path d="M305 8188 c-14 -67 -8 -97 25 -128 l31 -29 -28 -3 c-28 -3 -28 -3
-28 -78 l0 -75 218 -3 217 -2 0 84 0 84 -122 4 c-160 5 -188 19 -188 90 0 34
-3 39 -46 58 -59 26 -72 25 -79 -2z"/>
<path d="M425 7762 c-87 -42 -127 -114 -127 -231 0 -166 92 -259 245 -249 81
5 134 37 174 105 25 44 28 57 28 143 0 86 -3 99 -28 143 -42 70 -91 99 -180
104 -56 3 -81 0 -112 -15z m168 -164 c54 -28 61 -76 18 -119 -26 -25 -37 -29
-86 -29 -49 0 -60 4 -86 29 -16 16 -29 36 -29 45 0 27 22 64 44 74 29 14 113
15 139 0z"/>
<path d="M673 7213 c-41 -4 -42 -5 -45 -46 l-3 -42 -97 -3 -98 -3 0 46 0 45
-65 0 -65 0 0 -45 0 -45 -80 0 c-44 0 -80 -3 -80 -6 0 -3 19 -41 43 -85 41
-77 43 -79 80 -79 35 0 37 -2 37 -30 l0 -31 63 3 c59 3 62 4 65 29 l3 27 122
4 c171 5 197 26 197 156 0 78 -8 113 -24 110 -6 -1 -30 -3 -53 -5z"/>
<path d="M140 6725 l0 -85 300 0 300 0 0 85 0 85 -300 0 -300 0 0 -85z"/>
<path d="M304 6517 c-3 -8 -4 -45 -2 -83 l3 -69 136 -5 c116 -4 140 -8 158
-24 24 -22 27 -54 7 -82 -13 -17 -30 -19 -160 -22 l-146 -4 0 -79 0 -79 178 0
c197 0 225 8 257 69 29 57 14 165 -28 200 -24 19 -21 31 8 31 25 0 25 1 25 80
l0 80 -215 0 c-172 0 -217 -3 -221 -13z"/>
<path d="M2435 6105 c-199 -37 -356 -140 -469 -307 -98 -145 -144 -315 -132
-484 8 -113 27 -188 72 -283 97 -206 238 -325 480 -407 72 -24 89 -26 194 -21
89 3 133 11 195 31 150 51 291 154 373 275 80 116 90 159 47 187 -23 15 -27
15 -50 0 -14 -9 -33 -33 -44 -54 -28 -53 -63 -99 -132 -168 -98 -100 -241
-163 -376 -167 -56 -2 -76 2 -83 13 -6 9 -9 258 -7 650 l2 635 62 3 c77 4 166
-19 263 -66 60 -29 95 -56 172 -134 54 -54 104 -98 111 -98 19 0 47 33 47 54
0 33 -30 74 -108 147 -125 117 -244 176 -398 199 -88 12 -132 11 -219 -5z"/>
<path d="M7697 6070 c-32 -53 6 -71 42 -21 27 38 26 51 -2 51 -15 0 -29 -11
-40 -30z"/>
<path d="M3353 6072 c-17 -11 -17 -1413 0 -1424 7 -4 150 -8 319 -8 l307 0 0
696 c0 393 -4 706 -9 720 l-9 24 -298 0 c-164 0 -303 -4 -310 -8z"/>
<path d="M4196 6072 c-8 -14 -1 -1406 7 -1419 13 -21 713 -18 815 2 170 35
286 115 411 285 113 154 146 251 145 425 0 164 -46 295 -148 432 -141 188
-291 256 -601 273 -202 12 -622 13 -629 2z m829 -128 c144 -35 290 -146 362
-274 101 -183 110 -413 23 -587 -98 -194 -322 -340 -510 -331 l-65 3 -3 595
c-1 327 0 601 3 608 6 16 92 10 190 -14z"/>
<path d="M6966 6072 c-4 -7 -9 -169 -7 -263 1 -50 16 -65 52 -54 17 6 19 19
19 154 0 101 -4 151 -12 159 -13 13 -44 16 -52 4z"/>
<path d="M5760 6052 c-48 -24 -75 -74 -75 -142 0 -98 59 -160 150 -160 69 0
108 33 91 76 -5 14 -8 13 -28 0 -31 -22 -91 -20 -112 3 -10 11 -20 43 -23 72
-7 71 19 109 76 109 20 0 46 -7 57 -15 28 -21 34 -18 34 16 0 25 -6 32 -35 45
-46 19 -92 18 -135 -4z"/>
<path d="M7103 6053 c-7 -3 -13 -14 -13 -26 0 -11 -8 -29 -17 -39 -16 -18 -16
-21 0 -47 11 -19 17 -51 17 -90 0 -78 20 -101 84 -101 25 0 47 4 50 9 11 18
-6 40 -32 43 -26 3 -27 5 -27 68 0 63 1 65 28 68 39 5 38 40 -2 48 -23 5 -31
13 -33 32 -3 25 -32 43 -55 35z"/>
<path d="M525 5959 c-37 -33 -58 -87 -70 -187 -7 -55 -26 -85 -49 -76 -32 12
-27 84 6 112 11 9 14 27 11 65 -8 105 -16 115 -64 74 -48 -40 -62 -82 -62
-188 0 -83 3 -102 24 -140 32 -59 85 -86 138 -70 20 6 47 22 60 35 22 23 61
146 61 192 0 12 9 32 19 45 19 23 19 24 40 5 30 -27 28 -80 -4 -112 -27 -26
-30 -53 -19 -138 8 -58 23 -59 79 -3 37 37 44 50 50 101 12 95 2 198 -25 241
-49 79 -133 98 -195 44z"/>
<path d="M6013 5980 c-34 -14 -55 -55 -55 -109 0 -76 41 -121 113 -121 70 0
109 45 109 126 0 39 -5 51 -34 80 -27 27 -42 34 -72 33 -22 0 -49 -4 -61 -9z
m85 -52 c18 -18 15 -94 -4 -113 -49 -48 -98 57 -53 112 14 16 41 17 57 1z"/>
<path d="M6227 5984 c-4 -4 -7 -56 -7 -115 0 -108 0 -109 26 -115 14 -4 29 -3
34 2 5 5 10 42 12 83 2 58 7 76 21 85 30 18 47 -17 45 -92 -2 -68 8 -85 47
-80 18 3 20 11 20 101 0 93 -1 100 -25 119 -18 14 -32 18 -55 13 -39 -8 -54
-8 -85 0 -14 4 -29 3 -33 -1z"/>
<path d="M6520 5983 c-45 -17 -62 -61 -40 -103 5 -10 33 -26 60 -35 29 -10 49
-22 47 -28 -4 -13 -73 -15 -99 -3 -26 12 -25 -40 1 -54 29 -15 98 -12 131 5
59 31 49 106 -17 124 -51 15 -67 26 -58 41 5 9 23 11 56 7 44 -5 49 -4 49 13
0 11 -9 24 -19 30 -21 10 -85 12 -111 3z"/>
<path d="M6705 5981 c-6 -6 -8 -51 -5 -106 6 -110 19 -131 75 -120 29 6 44 6
95 2 l25 -2 3 112 c3 112 3 112 -22 119 -40 10 -46 -2 -46 -86 0 -70 -2 -79
-20 -85 -33 -10 -40 3 -40 71 0 36 -5 74 -10 85 -11 20 -40 25 -55 10z"/>
<path d="M7288 5974 c-38 -20 -48 -43 -48 -107 0 -50 3 -58 35 -86 40 -35 87
-41 134 -17 34 18 51 54 51 112 0 39 -5 51 -34 80 -27 27 -42 34 -72 34 -22
-1 -51 -7 -66 -16z m90 -46 c7 -7 12 -33 12 -58 0 -48 -13 -70 -41 -70 -26 0
-42 27 -42 70 0 60 38 91 71 58z"/>
<path d="M7507 5984 c-4 -4 -7 -56 -7 -115 l0 -107 26 -6 c15 -4 31 -3 35 1 4
4 9 42 11 83 l3 75 35 5 c31 4 35 8 35 35 0 24 -4 29 -20 27 -30 -6 -57 -4
-85 3 -14 3 -29 3 -33 -1z"/>
<path d="M7692 5982 c-20 -13 -12 -212 9 -225 9 -6 24 -7 33 -4 24 9 24 222 0
231 -20 8 -26 7 -42 -2z"/>
<path d="M7822 5981 c-8 -5 -12 -17 -10 -27 3 -16 12 -19 53 -19 38 0 50 -4
50 -15 0 -8 -9 -16 -20 -18 -50 -7 -67 -14 -85 -32 -26 -26 -25 -60 0 -93 19
-24 25 -25 98 -22 42 2 80 4 85 4 4 1 7 40 7 87 0 81 -1 87 -29 115 -25 25
-37 29 -83 29 -29 0 -59 -4 -66 -9z m104 -136 c8 -19 -13 -45 -36 -45 -26 0
-35 32 -14 47 24 17 43 16 50 -2z"/>
<path d="M7257 5563 c-4 -3 -7 -75 -7 -159 l0 -154 24 -6 c14 -3 30 -3 35 1 7
4 11 63 11 160 0 130 -2 154 -16 159 -20 8 -39 8 -47 -1z"/>
<path d="M8783 5563 c-10 -3 -13 -45 -13 -159 l0 -154 24 -6 c14 -3 30 -3 35
1 7 4 11 63 11 160 0 130 -2 154 -16 159 -18 7 -23 7 -41 -1z"/>
<path d="M5690 5526 c0 -15 7 -26 20 -29 18 -5 20 -14 20 -97 0 -84 -2 -92
-21 -97 -15 -4 -19 -12 -17 -32 3 -25 5 -26 78 -26 69 0 75 2 78 22 2 14 -4
26 -17 33 -19 10 -21 20 -21 101 0 82 2 91 20 96 13 3 20 14 20 29 0 23 -2 24
-80 24 -78 0 -80 -1 -80 -24z"/>
<path d="M6160 5514 c0 -15 -7 -36 -17 -46 -15 -17 -15 -19 0 -36 12 -13 17
-37 17 -79 0 -85 24 -115 89 -111 63 4 63 32 -1 52 -15 4 -18 17 -18 66 0 56
2 60 23 60 23 0 47 17 47 32 0 4 -15 14 -34 22 -23 10 -35 22 -38 38 -2 18
-10 24 -35 26 -30 3 -33 1 -33 -24z"/>
<path d="M5907 5468 c-14 -7 -17 -26 -17 -107 0 -104 9 -126 47 -119 15 3 19
16 23 80 5 84 19 110 48 92 13 -9 18 -28 20 -87 3 -72 4 -77 27 -83 40 -10 45
2 45 97 0 82 -2 92 -25 114 -26 27 -46 31 -76 14 -14 -7 -30 -7 -48 -1 -17 6
-34 6 -44 0z"/>
<path d="M6375 5471 c-43 -18 -60 -50 -60 -112 0 -50 4 -62 27 -86 23 -22 38
-28 91 -31 70 -5 100 11 90 48 -6 22 -18 26 -28 10 -17 -27 -115 -2 -115 30 0
13 30 20 56 14 40 -10 94 4 94 25 0 82 -78 133 -155 102z m83 -63 c3 -14 -4
-18 -32 -18 -36 0 -52 12 -41 31 11 17 69 6 73 -13z"/>
<path d="M6601 5463 c-57 -39 -65 -140 -14 -190 20 -21 31 -25 64 -20 28 4 39
1 39 -8 0 -25 -29 -38 -69 -31 -45 7 -57 -4 -41 -34 9 -17 21 -20 70 -20 48 0
64 5 87 24 28 24 28 26 31 155 2 72 0 131 -5 132 -73 8 -144 5 -162 -8z m99
-93 c0 -39 -4 -52 -20 -60 -15 -8 -24 -6 -40 10 -11 11 -20 28 -20 38 0 29 29
62 56 62 22 0 24 -4 24 -50z"/>
<path d="M6843 5471 c-6 -3 -13 -52 -16 -108 -6 -112 2 -131 47 -119 24 6 25
11 28 84 l3 77 35 5 c29 4 35 9 35 30 0 22 -4 25 -35 23 -19 -1 -47 2 -61 6
-14 5 -31 6 -36 2z"/>
<path d="M7030 5473 c-20 -8 -29 -23 -23 -38 3 -8 23 -12 56 -11 70 1 71 -22
3 -39 -27 -7 -56 -21 -63 -31 -20 -27 -16 -68 10 -91 19 -18 34 -21 102 -19
l80 1 3 90 c3 86 1 92 -23 115 -18 17 -39 24 -77 26 -29 2 -60 1 -68 -3z m94
-139 c8 -21 -11 -44 -36 -44 -27 0 -35 30 -13 46 25 18 41 18 49 -2z"/>
<path d="M7498 5468 c-15 -11 -17 -32 -15 -158 l2 -145 35 0 c33 0 35 2 38 38
3 32 7 38 25 37 45 -4 59 1 88 29 26 26 29 36 29 91 0 55 -3 65 -30 92 -25 24
-36 29 -58 23 -37 -9 -64 -10 -82 -1 -9 3 -23 1 -32 -6z m130 -100 c2 -38 -1
-49 -19 -61 -36 -26 -49 -11 -49 55 l0 59 33 -3 c31 -3 32 -5 35 -50z"/>
<path d="M7770 5471 c-16 -4 -25 -14 -25 -26 0 -17 6 -20 45 -17 48 3 77 -9
66 -27 -4 -6 -20 -11 -36 -11 -73 0 -110 -46 -85 -105 16 -41 7 -37 113 -40
l82 -2 0 89 c0 49 -4 98 -10 108 -18 33 -90 48 -150 31z m85 -151 c0 -20 -6
-26 -27 -28 -24 -3 -28 0 -28 22 0 25 13 36 40 33 9 -1 15 -13 15 -27z"/>
<path d="M8002 5471 c-14 -9 -19 -208 -5 -222 6 -6 21 -9 34 -7 22 3 24 8 29
83 l5 80 35 5 c27 4 36 10 38 28 4 28 -20 39 -53 24 -13 -6 -27 -7 -29 -3 -8
12 -42 20 -54 12z"/>
<path d="M8190 5473 c-20 -8 -29 -23 -23 -38 3 -8 23 -12 56 -11 42 1 52 -2
55 -16 3 -14 -3 -18 -23 -18 -14 0 -41 -6 -59 -14 -45 -19 -57 -66 -28 -105
18 -24 24 -26 103 -26 l84 0 3 87 c2 78 1 88 -21 114 -19 22 -33 28 -78 30
-30 2 -61 1 -69 -3z m94 -138 c9 -25 -5 -45 -30 -45 -32 0 -43 29 -19 46 24
18 41 18 49 -1z"/>
<path d="M8563 5460 c-43 -26 -61 -84 -44 -140 16 -53 58 -80 127 -80 27 0 58
6 68 13 24 18 17 53 -9 49 -81 -14 -87 -14 -105 3 -31 28 -24 35 33 35 80 0
97 7 97 42 0 40 -15 65 -50 83 -39 20 -79 19 -117 -5z m92 -50 c0 -10 -12 -16
-32 -18 -32 -3 -45 13 -26 32 13 12 58 2 58 -14z"/>
<path d="M420 5443 c-42 -7 -87 -35 -105 -65 -32 -56 -17 -169 29 -207 23 -19
20 -29 -11 -33 -28 -3 -28 -4 -28 -78 l0 -75 218 -3 217 -2 0 84 0 84 -134 4
c-149 3 -176 14 -176 69 0 50 28 59 177 59 l133 0 0 85 0 85 -147 -1 c-82 -1
-159 -4 -173 -6z"/>
<path d="M7322 4893 l3 -158 33 -3 32 -3 0 160 0 161 -35 0 -36 0 3 -157z"/>
<path d="M7452 4893 l3 -158 30 0 30 0 0 155 0 155 -33 3 -33 3 3 -158z"/>
<path d="M8114 5040 c-46 -14 -69 -45 -69 -92 0 -48 25 -71 102 -97 35 -12 49
-22 51 -38 2 -14 -3 -23 -18 -28 -25 -8 -98 3 -106 16 -11 19 -34 9 -34 -15 0
-37 35 -56 103 -56 98 0 146 42 132 116 -6 33 -31 56 -75 68 -58 17 -80 29
-80 46 0 32 64 41 112 16 15 -8 29 -12 32 -8 13 12 5 52 -11 61 -29 15 -105
21 -139 11z"/>
<path d="M8525 5039 c-78 -24 -117 -106 -96 -200 19 -85 97 -127 191 -105 41
10 45 14 48 44 4 36 -10 41 -42 17 -27 -21 -59 -19 -89 5 -54 43 -41 171 19
186 25 6 38 3 97 -21 14 -6 17 -2 17 24 0 19 -7 34 -17 39 -29 16 -96 21 -128
11z"/>
<path d="M5704 5027 c-2 -7 -3 -76 -2 -152 l3 -140 85 0 c100 1 128 15 160 79
26 54 25 91 -2 146 -31 60 -73 80 -166 80 -50 0 -74 -4 -78 -13z m164 -70 c17
-16 22 -31 22 -67 0 -63 -28 -100 -76 -100 l-34 0 0 93 c0 52 3 97 6 100 11
11 57 -4 82 -26z"/>
<path d="M6073 4962 c-37 -11 -61 -38 -74 -81 -25 -83 32 -153 125 -153 54 0
86 16 86 43 0 18 -4 20 -45 13 -60 -8 -95 1 -95 26 0 18 7 20 69 20 39 0 72 4
75 8 9 15 -12 85 -31 104 -21 21 -76 31 -110 20z m65 -64 c3 -15 -4 -18 -32
-18 -34 0 -47 15 -29 34 13 13 58 1 61 -16z"/>
<path d="M6284 4956 c-70 -31 -57 -113 21 -132 75 -17 66 -47 -13 -42 -63 3
-78 -11 -38 -37 28 -19 104 -22 134 -6 10 5 27 22 37 37 16 25 16 28 -2 53
-11 14 -40 33 -64 42 -63 24 -58 45 9 42 45 -2 52 0 52 17 0 24 -9 29 -62 35
-26 3 -55 0 -74 -9z"/>
<path d="M6498 4963 c-22 -3 -28 -10 -28 -30 0 -24 2 -25 35 -19 20 4 45 4 55
1 28 -9 25 -35 -4 -35 -88 0 -137 -73 -86 -128 17 -18 29 -21 102 -19 l83 2 3
82 c3 95 -6 119 -53 139 -34 14 -53 15 -107 7z m82 -138 c16 -19 -3 -45 -32
-45 -27 0 -35 30 -13 46 24 18 30 17 45 -1z"/>
<path d="M7130 4963 c-8 -3 -27 -17 -42 -31 -24 -22 -28 -33 -28 -83 0 -49 4
-61 29 -88 25 -27 36 -31 81 -31 44 0 56 4 81 29 25 26 29 37 29 85 0 47 -4
60 -27 86 -28 30 -89 47 -123 33z m61 -53 c15 -8 19 -21 19 -59 0 -54 -15 -74
-52 -69 -20 3 -23 9 -26 56 -4 72 15 95 59 72z"/>
<path d="M7625 4959 c-43 -13 -65 -46 -65 -102 0 -92 56 -145 135 -127 58 13
85 49 85 113 0 62 -18 93 -66 113 -37 16 -46 16 -89 3z m69 -52 c22 -16 26
-88 6 -112 -15 -18 -42 -19 -58 -3 -19 19 -15 105 6 117 22 14 25 13 46 -2z"/>
<path d="M6712 4848 l3 -113 33 -3 c32 -3 32 -3 34 45 3 113 8 123 56 123 18
0 22 6 22 30 0 33 -16 38 -52 19 -14 -8 -23 -8 -31 0 -6 6 -24 11 -39 11 l-29
0 3 -112z"/>
<path d="M6894 4947 c-2 -7 -3 -58 -2 -113 l3 -99 33 -3 32 -3 0 73 c0 81 9
98 52 98 24 0 28 4 28 30 0 32 -16 38 -50 20 -13 -7 -21 -7 -25 0 -9 15 -65
12 -71 -3z"/>
<path d="M471 4889 c-111 -22 -174 -111 -174 -250 0 -68 4 -85 30 -131 87
-153 307 -155 394 -4 28 49 37 165 19 231 -31 111 -148 178 -269 154z m151
-199 c25 -30 23 -64 -6 -97 -22 -25 -30 -28 -91 -28 -61 0 -69 2 -92 29 -19
23 -23 36 -19 60 8 41 27 58 73 65 55 10 114 -3 135 -29z"/>
<path d="M7836 4802 c-2 -4 -11 -37 -20 -72 -14 -64 -10 -90 14 -75 13 8 70
127 70 145 0 12 -57 14 -64 2z"/>
<path d="M8317 4803 c-11 -11 -8 -48 5 -61 33 -33 78 1 63 48 -6 20 -53 29
-68 13z"/>
<path d="M8714 4796 c-3 -8 -4 -25 -2 -38 2 -18 10 -24 36 -26 33 -3 33 -3 30
35 -3 33 -7 38 -31 41 -17 2 -29 -2 -33 -12z"/>
<path d="M542 4313 c-11 -21 -42 -126 -42 -141 0 -6 13 -13 30 -17 44 -10 80
-58 80 -107 0 -81 -54 -118 -172 -118 -112 0 -168 43 -168 129 0 34 6 44 40
74 l40 34 -17 76 c-9 43 -21 77 -26 77 -50 0 -150 -96 -167 -162 -19 -67 -8
-214 18 -264 29 -56 77 -103 132 -128 69 -31 225 -30 298 3 68 31 136 105 151
165 14 57 14 179 0 230 -14 49 -78 118 -134 145 -54 25 -52 25 -63 4z"/>
<path d="M9155 4140 c-35 -36 -138 -90 -172 -90 -13 0 -22 -4 -19 -8 8 -14 60
-5 103 17 40 20 85 57 112 94 21 27 8 20 -24 -13z"/>
<path d="M3273 4033 c65 -2 168 -2 230 0 62 1 9 3 -118 3 -126 0 -177 -2 -112
-3z"/>
<path d="M5673 4033 c53 -2 141 -2 195 0 53 1 9 3 -98 3 -107 0 -151 -2 -97
-3z"/>
<path d="M7273 4033 c54 -2 139 -2 190 0 51 1 7 3 -98 3 -104 0 -146 -2 -92
-3z"/>
<path d="M8473 4033 c48 -2 126 -2 175 0 48 1 8 3 -88 3 -96 0 -136 -2 -87 -3z"/>
<path d="M335 3361 c-87 -21 -161 -86 -183 -160 -7 -23 -12 -110 -12 -215 l0
-176 301 0 301 0 -4 193 c-3 176 -5 196 -25 234 -29 54 -86 100 -147 118 -51
15 -178 18 -231 6z m210 -195 c42 -18 55 -42 58 -108 l2 -53 -165 0 -165 0 2
44 c5 100 42 130 161 131 41 0 88 -6 107 -14z"/>
<path d="M140 2575 l0 -95 300 0 300 0 0 95 0 95 -300 0 -300 0 0 -95z"/>
<path d="M521 2304 c-22 -74 -22 -79 -5 -91 10 -7 23 -13 30 -13 26 0 64 -60
64 -102 0 -81 -54 -118 -173 -118 -105 0 -167 46 -167 124 0 41 17 68 63 99
16 11 16 16 0 90 -16 75 -18 78 -41 72 -71 -18 -146 -104 -158 -181 -11 -76 0
-195 24 -240 27 -54 77 -102 132 -127 36 -17 66 -21 145 -21 90 -1 106 2 157
27 120 59 165 148 156 310 -4 73 -9 93 -34 134 -30 48 -94 96 -145 108 -25 6
-26 3 -48 -71z"/>
<path d="M1323 2053 c9 -2 23 -2 30 0 6 3 -1 5 -18 5 -16 0 -22 -2 -12 -5z"/>
<path d="M1370 1261 c-21 -40 -13 -51 35 -51 54 0 53 11 20 -178 -14 -78 -25
-145 -25 -148 0 -3 15 -4 33 -2 l32 3 29 163 29 162 48 0 c44 0 47 2 51 30 3
17 2 32 0 35 -3 3 -58 5 -123 5 -107 0 -119 -2 -129 -19z"/>
<path d="M1884 1272 c-6 -4 -23 -81 -38 -172 -16 -91 -30 -177 -33 -192 -5
-26 -3 -28 26 -28 24 0 32 5 36 23 15 64 62 363 58 370 -5 9 -35 9 -49 -1z"/>
<path d="M2538 1265 c-24 -13 -58 -61 -58 -80 0 -3 10 -9 23 -14 18 -7 27 -3
47 22 24 28 27 29 43 13 9 -10 17 -24 17 -32 0 -25 -20 -54 -36 -54 -8 0 -19
-12 -25 -27 -9 -24 -7 -30 15 -46 28 -20 36 -73 14 -95 -21 -21 -58 -14 -68
13 -10 25 -34 32 -59 16 -12 -8 -11 -15 6 -47 42 -82 140 -78 183 7 24 46 21
97 -6 119 -13 11 -12 16 7 36 14 15 24 41 27 72 3 40 0 53 -19 75 -30 33 -75
42 -111 22z"/>
<path d="M2788 1265 c-29 -16 -63 -69 -54 -84 3 -5 15 -11 26 -14 16 -4 24 1
32 18 6 13 17 26 24 29 16 6 44 -19 44 -40 0 -25 -20 -54 -36 -54 -8 0 -20
-12 -26 -26 -11 -24 -10 -28 15 -46 29 -21 38 -73 15 -96 -21 -21 -57 -14 -70
13 -11 25 -32 31 -56 16 -11 -7 -11 -14 1 -42 16 -40 32 -54 69 -63 94 -22
175 115 111 187 -15 16 -15 19 5 37 27 25 36 60 28 104 -12 61 -75 91 -128 61z"/>
<path d="M3094 1259 c-10 -11 -39 -34 -65 -51 -31 -20 -49 -39 -52 -57 -7 -38
0 -42 38 -24 19 9 37 14 40 11 3 -3 -3 -56 -15 -118 -26 -144 -26 -140 10
-140 17 0 30 1 30 3 0 1 15 89 34 194 18 106 31 195 28 198 -11 10 -30 4 -48
-16z"/>
<path d="M3528 1264 c-36 -19 -58 -64 -65 -128 -4 -42 -1 -57 19 -86 19 -28
31 -36 61 -38 42 -4 50 -27 19 -55 -24 -22 -44 -21 -59 2 -17 26 -53 17 -53
-14 0 -38 33 -69 72 -69 51 0 86 28 113 88 48 108 42 253 -12 295 -30 25 -57
26 -95 5z m68 -69 c19 -29 12 -89 -13 -117 -52 -58 -85 47 -38 118 20 30 30
30 51 -1z"/>
<path d="M3824 1249 c-16 -17 -43 -39 -61 -50 -20 -12 -34 -31 -38 -50 -9 -40
-4 -43 39 -23 19 10 38 16 40 13 3 -4 -9 -81 -32 -201 -5 -26 -7 -50 -4 -53 9
-9 62 -5 62 4 0 5 14 88 30 184 17 96 30 182 30 191 0 26 -34 18 -66 -15z"/>
<path d="M4022 1264 c-35 -24 -62 -87 -62 -143 0 -66 35 -111 86 -111 38 0 43
-13 18 -48 -19 -27 -41 -28 -62 -3 -13 15 -22 17 -40 10 -21 -8 -21 -10 -9
-41 27 -67 112 -71 157 -8 45 63 70 197 50 271 -21 78 -84 111 -138 73z m76
-78 c11 -22 11 -34 0 -68 -16 -50 -39 -68 -63 -48 -34 28 1 159 39 147 6 -2
17 -16 24 -31z"/>
<path d="M4272 1149 c-64 -92 -92 -140 -92 -160 0 -29 1 -29 61 -29 l61 0 -7
-40 c-7 -39 -6 -40 24 -40 28 0 31 3 37 40 5 29 11 40 24 40 19 0 30 19 30 51
0 13 -7 19 -21 19 -15 0 -19 4 -15 16 4 9 13 60 22 112 8 52 16 100 17 106 1
6 -9 12 -23 14 -23 3 -37 -13 -118 -129z m50 -75 c-6 -33 -12 -40 -35 -42 -35
-4 -34 5 5 58 35 47 43 44 30 -16z"/>
<path d="M4772 1152 c-52 -74 -91 -140 -93 -157 l-4 -30 63 -3 62 -3 -6 -40
c-7 -40 -6 -41 22 -37 24 2 31 9 38 41 7 26 15 37 28 37 10 0 18 6 18 14 0 8
3 22 6 31 5 11 0 18 -15 22 -15 4 -20 11 -16 27 8 36 35 198 35 212 0 8 -10
14 -24 14 -19 0 -41 -24 -114 -128z m53 -54 c-13 -64 -15 -68 -46 -68 l-29 0
32 50 c38 58 52 63 43 18z"/>
<path d="M5200 1258 c-64 -151 -146 -375 -140 -382 5 -5 15 -6 22 -3 10 3 105
228 164 390 10 27 -34 22 -46 -5z"/>
<path d="M5438 1265 c-24 -13 -58 -61 -58 -80 0 -3 10 -9 23 -14 18 -7 27 -3
47 22 24 28 27 29 43 13 9 -10 17 -24 17 -32 0 -25 -20 -54 -36 -54 -8 0 -20
-12 -26 -26 -11 -24 -10 -28 15 -46 29 -21 38 -73 15 -96 -21 -21 -58 -14 -68
13 -10 25 -34 32 -58 17 -14 -10 -8 -33 19 -73 23 -34 70 -43 115 -24 63 26
93 138 48 176 -13 10 -12 15 7 35 14 15 24 41 27 72 3 40 0 53 -19 75 -30 33
-75 42 -111 22z"/>
<path d="M5688 1265 c-29 -16 -63 -69 -54 -84 3 -5 15 -11 26 -14 16 -4 23 1
30 17 5 13 15 26 24 29 18 7 46 -17 46 -39 0 -25 -20 -54 -36 -54 -8 0 -20
-12 -26 -26 -11 -24 -10 -28 15 -46 29 -21 35 -54 17 -89 -16 -28 -58 -25 -72
6 -11 25 -32 31 -56 16 -11 -7 -11 -14 1 -42 16 -40 32 -54 69 -63 94 -22 175
115 111 187 -15 16 -15 19 5 37 27 25 36 60 28 104 -12 61 -75 91 -128 61z"/>
<path d="M5965 1239 c-27 -22 -56 -44 -66 -49 -16 -9 -32 -58 -23 -72 3 -4 20
0 39 9 19 9 37 15 39 12 3 -2 -4 -56 -15 -119 -24 -146 -25 -140 11 -140 17 0
30 1 30 3 0 1 13 79 30 172 44 250 42 256 -45 184z"/>
<path d="M6424 1261 c-93 -57 -79 -241 19 -249 42 -4 50 -27 19 -55 -24 -22
-44 -21 -59 2 -17 26 -53 17 -53 -14 0 -13 8 -33 19 -46 22 -28 76 -31 114 -6
54 35 99 189 82 286 -8 49 -53 101 -87 101 -12 0 -37 -9 -54 -19z m71 -65 c19
-28 12 -90 -13 -118 -48 -56 -85 39 -42 110 24 38 34 40 55 8z"/>
<path d="M6714 1242 c-23 -20 -53 -47 -68 -59 -16 -13 -26 -32 -26 -47 0 -30
5 -31 40 -11 47 27 49 21 25 -110 -12 -69 -20 -127 -17 -130 11 -11 62 -5 62
8 0 6 14 89 30 182 16 94 30 178 30 188 0 28 -32 19 -76 -21z"/>
<path d="M6922 1264 c-35 -24 -62 -87 -62 -143 0 -66 35 -111 86 -111 38 0 43
-13 18 -48 -19 -27 -45 -28 -61 -3 -8 13 -19 17 -38 14 -21 -4 -24 -9 -19 -27
20 -67 63 -88 122 -59 80 40 127 241 80 338 -26 51 -83 69 -126 39z m68 -59
c28 -34 3 -145 -33 -145 -41 0 -52 89 -16 134 24 30 32 32 49 11z"/>
<path d="M7197 1188 c-111 -160 -117 -170 -117 -199 0 -29 1 -29 61 -29 l61 0
-7 -40 c-7 -39 -6 -40 24 -40 28 0 31 3 37 40 5 29 11 40 24 40 16 0 30 26 30
58 0 6 -9 12 -21 12 -15 0 -19 5 -15 15 3 9 12 58 21 110 8 52 16 101 18 108
1 6 -10 13 -24 15 -24 3 -35 -8 -92 -90z m25 -114 c-6 -33 -12 -40 -35 -42
-35 -4 -34 5 5 58 35 47 43 44 30 -16z"/>
<path d="M3242 1178 c-12 -51 -22 -96 -22 -100 0 -14 36 -14 63 1 40 22 61 6
65 -50 2 -34 -2 -50 -18 -67 -28 -30 -62 -26 -70 8 -4 18 -12 25 -30 25 -55 0
-26 -95 34 -115 75 -25 148 49 149 152 1 74 -34 118 -94 118 -15 0 -20 6 -17
23 3 19 10 22 53 25 56 4 60 6 69 45 l6 27 -83 0 -83 0 -22 -92z"/>
<path d="M4466 1254 c-18 -46 -9 -54 59 -54 36 0 65 -2 65 -5 0 -2 -15 -33
-34 -67 -35 -63 -86 -202 -86 -232 0 -11 9 -16 28 -16 26 0 29 5 42 53 20 81
66 186 105 242 19 28 35 61 35 73 0 21 -4 22 -104 22 -85 0 -105 -3 -110 -16z"/>
<path d="M6142 1178 c-12 -51 -22 -96 -22 -100 0 -14 36 -14 63 1 36 20 61 6
65 -39 5 -45 -16 -89 -45 -96 -27 -7 -39 1 -45 31 -4 27 -51 28 -56 2 -11 -54
59 -117 111 -101 53 16 98 81 100 148 3 76 -34 126 -94 126 -15 0 -20 6 -17
23 3 19 10 22 53 25 56 4 60 6 69 45 l6 27 -83 0 -83 0 -22 -92z"/>
<path d="M7366 1254 c-18 -46 -9 -54 59 -54 36 0 65 -3 65 -6 0 -4 -13 -28
-28 -53 -31 -50 -92 -211 -92 -242 0 -14 7 -19 28 -19 26 0 29 5 42 53 20 79
65 183 104 243 20 30 36 63 36 74 0 19 -6 20 -104 20 -85 0 -105 -3 -110 -16z"/>
<path d="M7655 1258 c-5 -18 -45 -176 -45 -182 0 -12 46 -12 66 0 13 9 32 13
44 9 16 -5 20 -15 20 -53 0 -85 -57 -123 -88 -59 -10 20 -20 27 -35 25 -29 -4
-32 -35 -7 -76 59 -96 182 -37 196 94 8 72 -17 116 -74 128 -30 7 -41 14 -37
24 3 7 5 18 5 23 0 5 24 9 54 9 47 0 54 3 60 23 12 46 10 47 -74 47 -56 0 -82
-4 -85 -12z"/>
<path d="M1631 1154 c-53 -38 -78 -161 -45 -225 34 -67 130 -71 174 -8 l21 29
-26 12 c-22 10 -28 8 -46 -10 -11 -12 -26 -22 -34 -22 -20 0 -45 28 -45 51 0
17 8 19 81 19 l81 0 -4 62 c-4 51 -9 65 -32 85 -32 28 -90 31 -125 7z m83 -47
c11 -8 17 -23 14 -38 -3 -21 -9 -24 -45 -27 -38 -3 -43 -1 -43 17 0 21 32 61
48 61 5 0 16 -6 26 -13z"/>
<path d="M1996 1144 c-19 -19 -26 -37 -26 -64 0 -41 14 -58 73 -85 43 -20 57
-42 36 -56 -23 -15 -51 -10 -75 12 -26 24 -64 18 -64 -10 0 -43 79 -77 141
-61 44 12 69 46 69 93 0 38 -15 55 -77 86 -44 22 -55 47 -27 58 9 3 31 -2 49
-11 33 -18 75 -15 75 5 0 6 -11 21 -25 34 -35 36 -112 35 -149 -1z"/>
<path d="M2196 928 c-11 -43 -8 -49 27 -46 28 3 32 7 35 36 3 30 1 32 -26 32
-22 0 -31 -6 -36 -22z"/>
<path d="M1396 612 c-5 -9 -66 -353 -66 -376 0 -11 9 -16 30 -16 35 0 35 0 50
98 l12 72 78 0 c75 0 78 1 84 25 4 14 4 30 1 35 -4 6 -39 10 -80 10 -80 0 -75
-5 -60 63 5 27 6 27 84 27 83 0 91 5 91 51 0 18 -8 19 -109 19 -61 0 -112 -3
-115 -8z"/>
<path d="M2444 601 c-30 -18 -59 -72 -47 -85 14 -14 46 -4 67 21 21 24 26 26
40 14 25 -21 17 -73 -14 -88 -14 -7 -28 -24 -32 -38 -5 -21 -2 -28 18 -37 19
-9 24 -19 24 -48 0 -20 -5 -41 -12 -48 -21 -21 -54 -14 -66 13 -7 15 -20 25
-32 25 -49 0 -29 -78 26 -105 28 -13 41 -14 69 -5 66 22 103 111 70 168 -17
28 -17 30 5 60 51 69 10 172 -68 172 -9 0 -31 -9 -48 -19z"/>
<path d="M2688 597 c-31 -26 -51 -63 -43 -77 11 -18 47 -10 67 15 11 14 24 25
29 25 5 0 15 -11 21 -25 13 -30 -3 -75 -27 -75 -9 0 -20 -12 -26 -27 -9 -24
-7 -30 15 -46 28 -20 36 -73 14 -95 -21 -21 -54 -14 -66 13 -11 25 -36 32 -59
17 -9 -6 -7 -18 7 -49 44 -100 178 -65 197 52 3 22 -1 43 -12 63 -18 29 -17
31 3 57 34 43 30 108 -7 146 -36 35 -76 38 -113 6z"/>
<path d="M3009 603 c-8 -9 -37 -33 -65 -54 -32 -23 -53 -47 -56 -63 -7 -36 -1
-38 43 -15 47 23 46 24 25 -91 -7 -41 -17 -94 -20 -118 l-6 -43 32 3 32 3 32
190 c17 105 30 193 27 198 -7 12 -30 8 -44 -10z"/>
<path d="M3208 604 c-49 -26 -88 -125 -90 -226 -1 -88 15 -131 57 -154 32 -17
36 -17 69 -1 65 31 98 146 61 216 -16 32 -33 41 -76 41 -36 0 -38 19 -4 57
l25 28 19 -22 c18 -22 50 -30 64 -17 10 10 -14 64 -36 79 -27 19 -54 18 -89
-1z m40 -186 c16 -16 15 -76 -1 -108 -8 -17 -21 -25 -37 -25 -23 0 -25 4 -28
48 -5 72 32 119 66 85z"/>
<path d="M3693 595 c-40 -32 -68 -106 -78 -201 -6 -60 -4 -79 13 -116 54 -124
191 -57 192 94 0 62 -36 108 -86 108 -42 0 -46 25 -10 59 l24 23 18 -21 c10
-12 29 -21 41 -21 32 0 31 43 -2 75 -31 32 -71 32 -112 0z m55 -177 c30 -30 0
-138 -39 -138 -36 0 -46 76 -17 133 10 20 39 22 56 5z"/>
<path d="M3946 598 c-40 -30 -74 -112 -82 -200 -5 -63 -3 -82 14 -121 51 -115
175 -66 189 75 4 45 1 59 -19 88 -19 28 -31 36 -61 38 -29 3 -37 7 -37 23 0
10 9 28 20 39 21 21 50 17 50 -6 0 -9 11 -14 30 -14 25 0 30 4 30 25 0 33 -45
75 -79 75 -14 0 -39 -10 -55 -22z m58 -201 c14 -40 -11 -111 -41 -115 -41 -6
-53 69 -21 131 14 27 51 18 62 -16z"/>
<path d="M4205 608 c-44 -25 -80 -97 -95 -190 -19 -123 14 -202 85 -202 31 0
43 6 67 34 58 70 88 252 54 319 -14 26 -53 51 -79 51 -7 0 -21 -6 -32 -12z
m55 -63 c17 -20 8 -131 -17 -205 -15 -47 -22 -55 -43 -55 -23 0 -25 4 -28 58
-5 91 35 217 68 217 4 0 13 -7 20 -15z"/>
<path d="M3406 533 c-9 -43 -20 -88 -23 -100 -6 -28 22 -35 60 -14 39 22 61 6
65 -47 6 -80 -63 -129 -87 -62 -7 20 -17 30 -31 30 -39 0 -39 -62 1 -99 66
-62 156 -12 183 102 17 69 -29 147 -85 147 -30 0 -34 6 -23 34 4 12 20 16 54
16 52 0 54 1 64 43 l6 27 -83 0 -83 0 -18 -77z"/>
<path d="M4420 603 c-1 -5 -11 -48 -24 -96 l-23 -89 21 -8 c14 -5 29 -3 43 6
12 8 29 14 38 14 22 0 39 -43 31 -83 -12 -64 -73 -90 -86 -37 -4 16 -14 26
-29 28 -34 5 -42 -8 -31 -49 13 -47 41 -71 84 -72 71 -2 125 67 126 161 0 46
-4 58 -29 83 -19 19 -40 29 -59 29 -26 0 -29 3 -25 25 5 22 11 24 62 27 55 3
56 3 59 36 l3 32 -80 0 c-45 0 -81 -3 -81 -7z"/>
<path d="M4626 594 c-18 -46 -9 -54 59 -54 36 0 65 -2 65 -5 0 -3 -14 -29 -30
-59 -32 -57 -89 -209 -90 -238 0 -13 8 -18 29 -18 26 0 30 4 41 49 18 75 65
185 105 245 19 29 35 63 35 75 0 20 -4 21 -104 21 -85 0 -105 -3 -110 -16z"/>
<path d="M1665 485 c-14 -13 -25 -31 -25 -40 0 -20 46 -20 66 0 21 20 41 19
53 -3 14 -27 2 -37 -62 -51 -69 -15 -90 -39 -85 -102 2 -32 9 -47 30 -62 25
-18 28 -19 59 -3 21 11 35 13 37 6 2 -5 16 -10 31 -10 26 0 27 2 39 88 7 48
16 101 19 119 4 25 0 37 -20 57 -36 36 -107 37 -142 1z m85 -139 c0 -19 -23
-57 -39 -65 -15 -8 -23 -7 -35 4 -19 19 -11 44 18 55 23 9 56 13 56 6z"/>
<path d="M1880 495 c0 -8 4 -23 10 -33 5 -9 17 -34 26 -55 l16 -37 -51 -70
c-28 -39 -51 -73 -51 -75 0 -3 16 -5 34 -5 28 0 40 7 62 35 14 19 29 35 33 35
4 0 13 -16 20 -35 11 -31 16 -35 47 -35 19 0 34 2 34 4 0 2 -13 34 -29 69
l-30 66 50 65 c27 36 49 70 49 76 0 5 -13 10 -30 10 -21 0 -36 -9 -57 -35 -15
-19 -31 -35 -36 -35 -4 0 -15 16 -24 35 -13 28 -23 35 -45 35 -18 0 -28 -5
-28 -15z"/>
<path d="M2107 263 c-7 -35 -2 -43 28 -43 27 0 29 3 39 43 6 25 4 27 -28 27
-29 0 -34 -4 -39 -27z"/>
</g>
</svg>
